<svg xmlns="http://www.w3.org/2000/svg" version="1.1" xmlns:xlink="http://www.w3.org/1999/xlink" xmlns:svgjs="http://svgjs.dev/svgjs" width="1000" height="1000" viewBox="0 0 1000 1000"><g transform="matrix(1,0,0,1,-0.14221556886212738,-0.14221556886229791)"><svg viewBox="0 0 334 334" data-background-color="#faf9f8" preserveAspectRatio="xMidYMid meet" height="1000" width="1000" xmlns="http://www.w3.org/2000/svg" xmlns:xlink="http://www.w3.org/1999/xlink"><g id="tight-bounds" transform="matrix(1,0,0,1,0.04749999999998522,0.04750000000001364)"><svg viewBox="0 0 333.90454557049503 333.90454557049503" height="333.90454557049503" width="333.90454557049503"><g><svg></svg></g><g><svg viewBox="0 0 333.90454557049503 333.90454557049503" height="333.90454557049503" width="333.90454557049503"><g><path d="M0 166.952c0-92.205 74.747-166.952 166.952-166.952 92.205 0 166.952 74.747 166.953 166.952 0 92.205-74.747 166.952-166.953 166.953-92.205 0-166.952-74.747-166.952-166.953zM166.952 316.63c82.665 0 149.677-67.013 149.678-149.678 0-82.665-67.013-149.677-149.678-149.677-82.665 0-149.677 67.013-149.677 149.677 0 82.665 67.013 149.677 149.677 149.678z" data-fill-palette-color="tertiary" fill="#ed2647" stroke="transparent"></path><ellipse rx="160.27418187383762" ry="160.27418187383762" cx="166.95227278524752" cy="166.95227278524752" fill="#ed2647" stroke="transparent" stroke-width="0" fill-opacity="1" data-fill-palette-color="tertiary"></ellipse></g><g transform="matrix(1,0,0,1,92.81300977019139,71.17305217166896)"><svg viewBox="0 0 148.27852603011226 191.55844122715712" height="191.55844122715712" width="148.27852603011226"><g><svg viewBox="0 0 148.27852603011226 191.55844122715712" height="191.55844122715712" width="148.27852603011226"><g><svg viewBox="0 0 148.27852603011226 191.55844122715712" height="191.55844122715712" width="148.27852603011226"><g><svg viewBox="0 0 148.27852603011226 191.55844122715712" height="191.55844122715712" width="148.27852603011226"><g id="textblocktransform"><svg viewBox="0 0 148.27852603011226 191.55844122715712" height="191.55844122715712" width="148.27852603011226" id="textblock"><g><svg viewBox="0 0 148.27852603011226 191.55844122715712" height="191.55844122715712" width="148.27852603011226"><g transform="matrix(1,0,0,1,0,0)"><svg width="148.27852603011226" viewBox="2.5900001525878906 -36.040000915527344 28.270000457763672 36.53000259399414" height="191.55844122715712" data-palette-color="#ffffff"><path d="M30.86-18.24L30.86-4.61Q28.93-2.1 25.51-0.81 22.09 0.49 17.75 0.49L17.75 0.49Q13.28 0.49 9.84-1.54 6.4-3.56 4.53-7.34 2.66-11.11 2.59-16.14L2.59-16.14 2.59-18.92Q2.59-26.98 6.45-31.51 10.3-36.04 17.21-36.04L17.21-36.04Q23.14-36.04 26.64-33.11 30.13-30.18 30.83-24.66L30.83-24.66 24.78-24.66Q23.75-31.08 17.33-31.08L17.33-31.08Q13.18-31.08 11.02-28.09 8.86-25.1 8.79-19.31L8.79-19.31 8.79-16.58Q8.79-10.82 11.22-7.63 13.65-4.44 17.97-4.44L17.97-4.44Q22.71-4.44 24.71-6.59L24.71-6.59 24.71-13.55 17.38-13.55 17.38-18.24 30.86-18.24Z" opacity="1" transform="matrix(1,0,0,1,0,0)" fill="#ffffff" class="wordmark-text-0" data-fill-palette-color="quaternary" id="text-0"></path></svg></g></svg></g></svg></g></svg></g><g></g></svg></g></svg></g></svg></g></svg></g><defs></defs></svg><rect width="333.90454557049503" height="333.90454557049503" fill="none" stroke="none" visibility="hidden"></rect></g></svg></g></svg>